# xmcd
#
# Track frame offsets: 
#        150
#        18929
#        41579
#        56614
#        72478
#        92633
#        109241
#        129026
#        144246
#        161244
#        177384
#        196499
#        214526
#
# Disc length: 3229 seconds
#
# Revision: 2
# Processed by: cddbd v1.5.2PL0 Copyright (c) Steve Scherf et al.
# Submitted via: ExactAudioCopyFreeDBPlugin 1.0
#
DISCID=b40c9b0d
DTITLE=Red Hot Chili Peppers - Kiedis, Flea, Smith, Klinghoffer
DYEAR=16
DGENRE=
TTITLE0=Getaway, The
TTITLE1=Dark Necessitties
TTITLE2=We Turn Red
TTITLE3=Longest Wave, The
TTITLE4=Goodbye Angels
TTITLE5=Sick Love
TTITLE6=Go Robot
TTITLE7=Feasting On The Flowers
TTITLE8=Detroit
TTITLE9=This Ticonderoga
TTITLE10=Encore
TTITLE11=Hunter, The
TTITLE12=Dreams Of A Samurai
EXTD=
EXTT0=
EXTT1=
EXTT2=
EXTT3=
EXTT4=
EXTT5=
EXTT6=
EXTT7=
EXTT8=
EXTT9=
EXTT10=
EXTT11=
EXTT12=
PLAYORDER=
